<svg width="1920" height="4316" viewBox="0 0 1920 4316" fill="none" xmlns="http://www.w3.org/2000/svg">
<g clip-path="url(#clip0_54_693)">
<rect width="1920" height="4316" fill="white"/>
<rect width="1920" height="474" fill="#B4D2BA"/>
<g filter="url(#filter0_d_54_693)">
<path d="M0 338.573C496.607 635.57 299.792 235.038 859 338.573C941.5 351.5 1129.94 422.849 1214.5 430.5C1424.5 449.5 1510.5 389 1585 354.5C1659.5 320 1859.5 242 1932.5 238V714L859 674C508.738 601.667 93.8743 615.85 0 674V338.573Z" fill="#2DAB87"/>
</g>
<path d="M0 369.573C496.607 666.57 299.792 262.465 859 366C928 378.775 1053.5 437 1128.5 455C1223.3 477.752 1288.82 496.326 1368 479.5C1448 462.5 1556.5 396.647 1598 369.573C1639.5 342.5 1839.5 253 1957.5 255V750L859 705C508.738 632.667 93.8743 646.85 0 705V369.573Z" fill="#0C947F"/>
<path d="M0 387.573C497.384 684.57 316.787 284.038 876.87 387.573C988.211 428.382 1206.89 501 1283.51 513C1355.3 524.245 1409.7 525.927 1511.86 451.5C1614.02 377.073 1690.14 343.5 1751.74 319.5C1801.01 300.3 1872.43 283.833 1920 278.5V1097.5V1920L860.344 1893C509.534 1820.67 94.0212 1834.85 0 1893V387.573Z" fill="#058C7C"/>
<g filter="url(#filter1_d_54_693)">
<path d="M1001 1606.25C349.35 1502.67 578.701 1823.33 0 1526.22V1214.09C109.392 1155.92 592.837 1141.73 1001 1214.09C1284 1271.5 1273.1 1280.9 1443.5 1304.5C1613.9 1328.1 1811.5 1273 1920 1246L1919.5 1669.5L1001 1606.25Z" fill="#145D68"/>
</g>
<path d="M1001 2970.8C349.35 2828.82 578.701 3268.36 0 2861.1V1263.3C109.392 1183.56 592.837 1164.11 1001 1263.3C1101 1288.36 1342.2 1340.3 1507 1347.5C1671.8 1354.7 1847.67 1305 1920.5 1279.5V2286.5L1001 2970.8Z" fill="#03545D"/>
<g filter="url(#filter2_d_54_693)">
<path d="M-9.5 2114.5C360 2207.5 294.5 1906.5 808.5 1961C911.5 1977.6 1060.5 2008 1221.5 2090C1419.04 2190.61 1552.95 2070.5 1645.5 2070.5C1790.5 2070.5 1827 2116.19 1921 2133.5V2461.74H1001C682.925 2602.49 109.392 2375.55 0 2461.74L-9.5 2114.5Z" fill="#05444C"/>
</g>
<path d="M0 2178.13C547.276 2197.54 362.5 1923.72 868.5 2010.5C1098 2049.86 1114.5 2120.5 1254 2158C1380.64 2192.04 1517.56 2173.55 1574 2131C1671.5 2057.5 1885.83 2174.13 1922.5 2178.13V3350L1001 3371.72C682.925 3521.46 109.392 3280.03 0 3371.72V2178.13Z" fill="#09353D"/>
<path d="M0 4316L176.683 4316C383.328 4316 519.192 4316 1001 4316H1918.5V3225.5L1724 3195C1609.2 3164.6 1194.17 3139.67 1001 3131C549.615 3164.01 109.392 3321.34 0 3131V4316Z" fill="#13222A"/>
<path d="M0 4312C309.889 4312 447.877 4312 1001 4312H1923.5V3264L1806 3246C1656.5 3226.33 1344.7 3185.5 1293.5 3179.5C1242.3 3173.5 1077.17 3162.67 1001 3158C549.615 3191 109.392 3348.26 0 3158V4312Z" fill="#0D1B23"/>
<path d="M0 4316C350.818 4316 643.166 4316 1001 4316H1926V3307.5L1398.5 3238.5C1290.1 3218.1 1088.33 3216.33 1001 3218C549.615 3251.02 109.392 3408.35 0 3218V4316Z" fill="#0D171D"/>
</g>
<defs>
<filter id="filter0_d_54_693" x="-6" y="230" width="1944.5" height="488" filterUnits="userSpaceOnUse" color-interpolation-filters="sRGB">
<feFlood flood-opacity="0" result="BackgroundImageFix"/>
<feColorMatrix in="SourceAlpha" type="matrix" values="0 0 0 0 0 0 0 0 0 0 0 0 0 0 0 0 0 0 127 0" result="hardAlpha"/>
<feOffset dy="-2"/>
<feGaussianBlur stdDeviation="3"/>
<feComposite in2="hardAlpha" operator="out"/>
<feColorMatrix type="matrix" values="0 0 0 0 0.0105903 0 0 0 0 0.254167 0 0 0 0 0.225298 0 0 0 0.2 0"/>
<feBlend mode="normal" in2="BackgroundImageFix" result="effect1_dropShadow_54_693"/>
<feBlend mode="normal" in="SourceGraphic" in2="effect1_dropShadow_54_693" result="shape"/>
</filter>
<filter id="filter1_d_54_693" x="-6" y="1155" width="1932" height="516.5" filterUnits="userSpaceOnUse" color-interpolation-filters="sRGB">
<feFlood flood-opacity="0" result="BackgroundImageFix"/>
<feColorMatrix in="SourceAlpha" type="matrix" values="0 0 0 0 0 0 0 0 0 0 0 0 0 0 0 0 0 0 127 0" result="hardAlpha"/>
<feOffset dy="-4"/>
<feGaussianBlur stdDeviation="3"/>
<feComposite in2="hardAlpha" operator="out"/>
<feColorMatrix type="matrix" values="0 0 0 0 0.0171875 0 0 0 0 0.249219 0 0 0 0 0.275 0 0 0 0.2 0"/>
<feBlend mode="normal" in2="BackgroundImageFix" result="effect1_dropShadow_54_693"/>
<feBlend mode="normal" in="SourceGraphic" in2="effect1_dropShadow_54_693" result="shape"/>
</filter>
<filter id="filter2_d_54_693" x="-15.5" y="1944.35" width="1942.5" height="566.653" filterUnits="userSpaceOnUse" color-interpolation-filters="sRGB">
<feFlood flood-opacity="0" result="BackgroundImageFix"/>
<feColorMatrix in="SourceAlpha" type="matrix" values="0 0 0 0 0 0 0 0 0 0 0 0 0 0 0 0 0 0 127 0" result="hardAlpha"/>
<feOffset dy="-4"/>
<feGaussianBlur stdDeviation="3"/>
<feComposite in2="hardAlpha" operator="out"/>
<feColorMatrix type="matrix" values="0 0 0 0 0.03 0 0 0 0 0.173846 0 0 0 0 0.2 0 0 0 0.2 0"/>
<feBlend mode="normal" in2="BackgroundImageFix" result="effect1_dropShadow_54_693"/>
<feBlend mode="normal" in="SourceGraphic" in2="effect1_dropShadow_54_693" result="shape"/>
</filter>
<clipPath id="clip0_54_693">
<rect width="1920" height="4316" fill="white"/>
</clipPath>
</defs>
</svg>
