<svg width="288" height="301" viewBox="0 0 288 301" fill="none" xmlns="http://www.w3.org/2000/svg">
<ellipse cx="144.36" cy="156.79" rx="143.423" ry="143.529" fill="url(#paint0_linear_64_4)" fill-opacity="0.66"/>
<line x1="143.198" y1="89.8021" x2="143.198" y2="223.955" stroke="#878787" stroke-width="2"/>
<line x1="179.234" y1="89.8021" x2="179.234" y2="223.955" stroke="#878787" stroke-width="2"/>
<line x1="107.162" y1="91.2446" x2="107.162" y2="223.955" stroke="#878787" stroke-width="2"/>
<path d="M55.0793 222.204H233.279L263.279 272.041H25.0793L55.0793 222.204Z" fill="#726262"/>
<rect x="66.5579" y="169.393" width="67.9637" height="68.0137" fill="#4194AE"/>
<rect x="64.1304" y="166.964" width="72.8183" height="72.8718" fill="#BABABA" fill-opacity="0.6"/>
<rect x="153.939" y="169.393" width="67.9637" height="68.0137" fill="#4194AE"/>
<rect x="151.512" y="166.964" width="72.8183" height="72.8719" fill="#BABABA" fill-opacity="0.6"/>
<path d="M186.213 183.286C189.596 183.453 193.492 181.974 195.017 181.215C197.763 179.442 198.481 178.027 199.667 175.606C201.479 177.845 204.521 182.154 202.188 181.486C199.271 180.65 198.783 183.416 195.361 185.419C191.94 187.423 186.014 189.154 183.696 190.092C181.378 191.03 178.047 192.977 173.815 193.781C169.584 194.584 168.916 187.424 170.742 185.593C172.568 183.762 181.983 183.078 186.213 183.286Z" fill="#A39898"/>
<ellipse rx="0.378942" ry="0.378807" transform="matrix(0.22658 -0.973993 0.973879 0.227067 173.5 192.465)" fill="black"/>
<ellipse rx="0.378948" ry="0.378808" transform="matrix(0.226576 -0.973994 0.973878 0.22707 172.002 186.201)" fill="black"/>
<path d="M175.333 189.935C174.174 190.1 172.112 190.74 171.22 191.232L171.259 191.397C172.894 190.611 175.839 189.43 178.965 190.704C180.244 191.225 180.485 192.64 180.589 193.417C180.623 192.828 180.518 191.517 179.833 190.984C178.977 190.318 176.781 189.728 175.333 189.935Z" fill="#333232"/>
<path d="M174.756 187.349C173.692 187.836 171.611 188.412 170.594 188.48L170.538 188.32C172.338 188.098 175.455 187.501 177.398 184.739C178.193 183.61 177.631 182.288 177.299 181.578C177.645 182.055 178.265 183.216 177.977 184.034C177.617 185.058 176.087 186.741 174.756 187.349Z" fill="#333232"/>
<path d="M166.333 193.518C167.206 192.975 169.545 192.192 170.605 191.868L170.566 191.704C166.876 192.586 165.407 193.821 165.133 194.328C165.169 194.284 165.459 194.062 166.333 193.518Z" fill="#333232"/>
<path d="M165.352 188.744C166.357 188.963 168.823 188.915 169.93 188.864L169.948 189.032C166.176 189.439 164.378 188.769 163.95 188.383C163.998 188.412 164.347 188.525 165.352 188.744Z" fill="#333232"/>
<path d="M165.943 191.788C166.465 191.553 169.074 191.067 170.276 190.849L170.33 191.009C169.1 191.249 166.526 191.776 166.073 191.959C165.62 192.142 165.102 192.541 164.9 192.717C165.031 192.505 165.422 192.023 165.943 191.788Z" fill="#333232"/>
<path d="M165.943 191.788C166.465 191.553 169.074 191.067 170.276 190.849L170.33 191.009C169.1 191.249 166.526 191.776 166.073 191.959C165.62 192.142 165.102 192.541 164.9 192.717C165.031 192.505 165.422 192.023 165.943 191.788Z" fill="#333232"/>
<path d="M165.74 190.826C166.311 190.848 168.912 190.321 170.109 190.073L170.099 189.904C168.868 190.142 166.285 190.619 165.796 190.619C165.308 190.619 164.678 190.443 164.425 190.356C164.625 190.503 165.169 190.803 165.74 190.826Z" fill="#333232"/>
<path d="M165.74 190.826C166.311 190.848 168.912 190.321 170.109 190.073L170.099 189.904C168.868 190.142 166.285 190.619 165.796 190.619C165.308 190.619 164.678 190.443 164.425 190.356C164.625 190.503 165.169 190.803 165.74 190.826Z" fill="#333232"/>
<ellipse rx="2.34959" ry="0.45439" transform="matrix(-0.226553 -0.974131 0.973834 -0.226691 170.593 190.273)" fill="black"/>
<path d="M171.302 192.886C171.437 191.237 171.075 189.85 170.877 189.363C170.981 190.14 171.169 191.921 171.081 192.835C170.97 193.977 170.16 196.123 169.681 197.178C169.298 198.023 169.583 199.049 169.773 199.457C169.738 199.163 169.69 198.41 169.782 197.747C169.897 196.917 171.133 194.949 171.302 192.886Z" fill="#333232"/>
<path d="M170.122 187.17C170.887 188.638 171.092 190.056 171.099 190.582C170.893 189.826 170.374 188.111 169.938 187.304C169.393 186.295 167.813 184.632 166.962 183.845C166.281 183.216 166.145 182.159 166.163 181.71C166.244 181.994 166.492 182.707 166.835 183.282C167.263 184.002 169.166 185.336 170.122 187.17Z" fill="#333232"/>
<path d="M173.738 181.079C173.406 181.437 174.406 183.336 174.947 184.24C175.316 184.326 176.141 184.394 176.487 183.977C176.833 183.559 176.949 181.542 176.964 180.586C176.027 180.601 174.07 180.721 173.738 181.079Z" fill="#A39898"/>
<path d="M173.738 181.079C173.406 181.437 174.406 183.336 174.947 184.24C175.316 184.326 176.141 184.394 176.487 183.977C176.833 183.559 176.949 181.542 176.964 180.586C176.027 180.601 174.07 180.721 173.738 181.079Z" fill="#A39898"/>
<path d="M175.97 196.254C175.543 196.016 175.905 193.901 176.139 192.873C176.463 192.677 177.225 192.357 177.684 192.647C178.142 192.936 178.879 194.818 179.189 195.723C178.294 195.999 176.397 196.492 175.97 196.254Z" fill="#A39898"/>
<path d="M175.97 196.254C175.543 196.016 175.905 193.901 176.139 192.873C176.463 192.677 177.225 192.357 177.684 192.647C178.142 192.936 178.879 194.818 179.189 195.723C178.294 195.999 176.397 196.492 175.97 196.254Z" fill="#A39898"/>
<path d="M181.692 185.75C180.533 185.727 178.45 186.85 177.552 187.414C178.312 187.333 180.227 187.11 181.817 186.862C183.803 186.552 185.252 186.58 186.662 186.445C188.072 186.31 189.708 185.531 190.451 185.627C191.195 185.723 193.835 184.251 194.659 183.67C195.484 183.089 196.761 182.536 197.193 182.327C197.538 182.16 198.643 180.81 199.153 180.155C198.576 180.33 197.348 180.802 197.051 181.289C196.68 181.898 193.373 183.602 191.827 184.324C190.28 185.046 187.494 185.17 186.901 185.418C186.307 185.666 183.141 185.779 181.692 185.75Z" fill="#938D8D"/>
<path d="M95.5412 187.168C98.2165 189.247 102.255 190.274 103.94 190.527C107.205 190.653 108.605 189.907 110.965 188.605C111.165 191.479 111.183 196.755 109.656 194.867C107.747 192.508 105.76 194.492 101.809 194.168C97.8569 193.844 92.0116 191.859 89.575 191.296C87.1383 190.733 83.2936 190.414 79.3677 188.642C75.4418 186.87 79.0031 180.623 81.549 180.173C84.0949 179.722 92.1971 184.568 95.5412 187.168Z" fill="#A39898"/>
<ellipse rx="0.378875" ry="0.378875" transform="matrix(0.744546 -0.667571 0.667021 0.745039 79.8661 187.38)" fill="black"/>
<ellipse rx="0.378875" ry="0.378875" transform="matrix(0.744546 -0.667571 0.667021 0.745039 82.2328 181.391)" fill="black"/>
<path d="M82.8185 186.362C81.7747 185.832 79.7188 185.172 78.7056 185.062L78.6433 185.22C80.4331 185.515 83.5225 186.239 85.3516 189.078C86.0998 190.239 85.4848 191.536 85.1248 192.232C85.4899 191.769 86.1565 190.636 85.9017 189.806C85.5831 188.768 84.1232 187.024 82.8185 186.362Z" fill="#333232"/>
<path d="M83.8287 183.914C82.6779 183.701 80.6435 182.977 79.772 182.449L79.8181 182.286C81.4195 183.138 84.314 184.438 87.4891 183.294C88.788 182.825 89.0864 181.421 89.2224 180.649C89.2317 181.239 89.0738 182.544 88.3679 183.049C87.4855 183.68 85.2672 184.18 83.8287 183.914Z" fill="#333232"/>
<path d="M73.393 184.126C74.4198 184.183 76.7844 184.885 77.8384 185.229L77.9007 185.071C74.3725 183.675 72.4609 183.842 71.946 184.1C72.0005 184.086 72.3661 184.07 73.393 184.126Z" fill="#333232"/>
<path d="M75.3284 179.653C76.0256 180.41 78.0725 181.787 79.0088 182.381L78.927 182.529C75.6047 180.696 74.5162 179.115 74.3872 178.553C74.4104 178.605 74.6311 178.897 75.3284 179.653Z" fill="#333232"/>
<path d="M74.0666 182.486C74.6282 182.593 77.0437 183.693 78.1535 184.204L78.1062 184.367C76.9608 183.857 74.5509 182.811 74.0749 182.7C73.5989 182.59 72.9461 182.619 72.6792 182.647C72.9077 182.549 73.505 182.379 74.0666 182.486Z" fill="#333232"/>
<path d="M74.0666 182.486C74.6282 182.593 77.0437 183.693 78.1535 184.204L78.1062 184.367C76.9608 183.857 74.5509 182.811 74.0749 182.7C73.5989 182.59 72.9461 182.619 72.6792 182.647C72.9077 182.549 73.505 182.379 74.0666 182.486Z" fill="#333232"/>
<path d="M74.4522 181.581C74.9071 181.928 77.3396 182.989 78.4613 183.474L78.5507 183.33C77.4061 182.818 75.0171 181.725 74.6169 181.444C74.2168 181.163 73.802 180.658 73.6445 180.441C73.7242 180.676 73.9973 181.235 74.4522 181.581Z" fill="#333232"/>
<path d="M74.4522 181.581C74.9071 181.928 77.3396 182.989 78.4613 183.474L78.5507 183.33C77.4061 182.818 75.0171 181.725 74.6169 181.444C74.2168 181.163 73.802 180.658 73.6445 180.441C73.7242 180.676 73.9973 181.235 74.4522 181.581Z" fill="#333232"/>
<ellipse rx="2.34899" ry="0.454623" transform="matrix(0.373402 -0.927982 0.927262 0.373639 78.7437 183.916)" fill="black"/>
<path d="M77.8243 186.463C78.8812 185.19 79.3805 183.847 79.498 183.334C79.138 184.03 78.2688 185.596 77.6727 186.294C76.9276 187.165 75.0329 188.457 74.035 189.046C73.2367 189.518 72.8813 190.522 72.8033 190.965C72.9428 190.704 73.3357 190.06 73.7917 189.57C74.3618 188.957 76.5033 188.055 77.8243 186.463Z" fill="#333232"/>
<path d="M80.1373 181.105C79.9214 182.746 79.2753 184.025 78.9793 184.459C79.2452 183.722 79.8036 182.02 79.91 181.108C80.0431 179.969 79.7031 177.7 79.4574 176.567C79.2608 175.661 79.7558 174.717 80.0278 174.359C79.9313 174.639 79.7259 175.365 79.6761 176.033C79.6138 176.868 80.4071 179.053 80.1373 181.105Z" fill="#333232"/>
<path d="M86.5923 178.195C86.1146 178.297 85.844 180.426 85.7684 181.478C86.0212 181.76 86.6573 182.289 87.1801 182.146C87.7029 182.002 88.9557 180.418 89.5167 179.643C88.741 179.118 87.07 178.092 86.5923 178.195Z" fill="#A39898"/>
<path d="M86.5923 178.195C86.1146 178.297 85.844 180.426 85.7684 181.478C86.0212 181.76 86.6573 182.289 87.1801 182.146C87.7029 182.002 88.9557 180.418 89.5167 179.643C88.741 179.118 87.07 178.092 86.5923 178.195Z" fill="#A39898"/>
<path d="M79.715 191.902C79.5018 191.462 81.0115 189.938 81.793 189.231C82.1708 189.257 82.9789 189.433 83.1881 189.933C83.3973 190.433 82.9207 192.397 82.6563 193.316C81.7648 193.028 79.9283 192.342 79.715 191.902Z" fill="#A39898"/>
<path d="M79.715 191.902C79.5018 191.462 81.0115 189.938 81.793 189.231C82.1708 189.257 82.9789 189.433 83.1881 189.933C83.3973 190.433 82.9207 192.397 82.6563 193.316C81.7648 193.028 79.9283 192.342 79.715 191.902Z" fill="#A39898"/>
<path d="M90.425 186.59C89.4892 185.906 87.1386 185.628 86.0803 185.575C86.7483 185.945 88.4451 186.862 89.889 187.571C91.6938 188.458 92.8636 189.314 94.0958 190.012C95.3279 190.711 97.1145 191.014 97.6682 191.519C98.2219 192.025 101.229 192.335 102.237 192.333C103.246 192.33 104.609 192.611 105.082 192.688C105.46 192.75 107.141 192.278 107.934 192.035C107.361 191.847 106.085 191.528 105.562 191.757C104.908 192.042 101.223 191.539 99.5423 191.242C97.8616 190.945 95.5093 189.447 94.8807 189.309C94.252 189.171 91.5949 187.445 90.425 186.59Z" fill="#938D8D"/>
<path d="M178.101 207.809C174.717 207.975 170.821 206.497 169.296 205.737C166.551 203.965 165.833 202.55 164.647 200.129C162.834 202.367 159.792 206.677 162.126 206.008C165.043 205.173 165.53 207.938 168.952 209.942C172.374 211.946 178.299 213.677 180.618 214.615C182.936 215.553 186.267 217.5 190.498 218.303C194.73 219.106 195.398 211.947 193.572 210.116C191.746 208.285 182.331 207.601 178.101 207.809Z" fill="#A39898"/>
<ellipse rx="0.378941" ry="0.378801" transform="matrix(-0.226576 -0.973993 -0.973878 0.22707 190.814 216.987)" fill="black"/>
<ellipse rx="0.378947" ry="0.378801" transform="matrix(-0.226572 -0.973994 -0.973878 0.227074 192.312 210.723)" fill="black"/>
<path d="M188.981 214.457C190.139 214.623 192.202 215.263 193.094 215.755L193.054 215.92C191.42 215.134 188.475 213.953 185.349 215.226C184.07 215.747 183.829 217.163 183.724 217.939C183.691 217.35 183.796 216.04 184.481 215.507C185.337 214.84 187.533 214.25 188.981 214.457Z" fill="#333232"/>
<path d="M189.557 211.872C190.622 212.359 192.703 212.934 193.72 213.002L193.776 212.842C191.975 212.621 188.859 212.023 186.916 209.262C186.121 208.132 186.683 206.811 187.014 206.1C186.668 206.578 186.048 207.738 186.337 208.557C186.697 209.581 188.227 211.264 189.557 211.872Z" fill="#333232"/>
<path d="M197.981 218.041C197.108 217.497 194.769 216.714 193.708 216.391L193.748 216.226C197.438 217.109 198.907 218.344 199.181 218.85C199.145 218.807 198.854 218.584 197.981 218.041Z" fill="#333232"/>
<path d="M198.962 213.266C197.957 213.485 195.491 213.438 194.384 213.386L194.365 213.555C198.137 213.962 199.936 213.292 200.364 212.906C200.315 212.935 199.967 213.047 198.962 213.266Z" fill="#333232"/>
<path d="M198.37 216.311C197.849 216.076 195.24 215.59 194.038 215.371L193.983 215.532C195.214 215.772 197.788 216.299 198.241 216.482C198.694 216.665 199.211 217.063 199.414 217.24C199.283 217.028 198.892 216.546 198.37 216.311Z" fill="#333232"/>
<path d="M198.37 216.311C197.849 216.076 195.24 215.59 194.038 215.371L193.983 215.532C195.214 215.772 197.788 216.299 198.241 216.482C198.694 216.665 199.211 217.063 199.414 217.24C199.283 217.028 198.892 216.546 198.37 216.311Z" fill="#333232"/>
<path d="M198.574 215.348C198.002 215.371 195.401 214.843 194.205 214.595L194.215 214.426C195.445 214.664 198.029 215.141 198.517 215.141C199.006 215.141 199.635 214.966 199.889 214.878C199.689 215.025 199.145 215.326 198.574 215.348Z" fill="#333232"/>
<path d="M198.574 215.348C198.002 215.371 195.401 214.843 194.205 214.595L194.215 214.426C195.445 214.664 198.029 215.141 198.517 215.141C199.006 215.141 199.635 214.966 199.889 214.878C199.689 215.025 199.145 215.326 198.574 215.348Z" fill="#333232"/>
<ellipse rx="2.34959" ry="0.454386" transform="matrix(0.226552 -0.974131 -0.973834 -0.226693 193.72 214.795)" fill="black"/>
<path d="M193.012 217.409C192.877 215.759 193.239 214.373 193.437 213.885C193.332 214.662 193.145 216.444 193.233 217.357C193.343 218.499 194.154 220.645 194.633 221.701C195.016 222.546 194.731 223.572 194.541 223.98C194.576 223.686 194.624 222.933 194.532 222.269C194.417 221.44 193.18 219.471 193.012 217.409Z" fill="#333232"/>
<path d="M194.192 211.693C193.427 213.161 193.222 214.579 193.215 215.105C193.42 214.348 193.94 212.634 194.376 211.827C194.92 210.817 196.5 209.155 197.351 208.368C198.032 207.738 198.168 206.682 198.151 206.232C198.07 206.517 197.821 207.229 197.479 207.805C197.051 208.524 195.148 209.858 194.192 211.693Z" fill="#333232"/>
<path d="M190.576 205.602C190.908 205.96 189.908 207.858 189.366 208.763C188.997 208.849 188.173 208.917 187.827 208.499C187.481 208.082 187.365 206.065 187.35 205.109C188.286 205.124 190.243 205.243 190.576 205.602Z" fill="#A39898"/>
<path d="M190.576 205.602C190.908 205.96 189.908 207.858 189.366 208.763C188.997 208.849 188.173 208.917 187.827 208.499C187.481 208.082 187.365 206.065 187.35 205.109C188.286 205.124 190.243 205.243 190.576 205.602Z" fill="#A39898"/>
<path d="M188.344 220.777C188.771 220.539 188.409 218.424 188.175 217.396C187.851 217.2 187.088 216.88 186.63 217.169C186.172 217.459 185.435 219.341 185.124 220.245C186.02 220.521 187.917 221.014 188.344 220.777Z" fill="#A39898"/>
<path d="M188.344 220.777C188.771 220.539 188.409 218.424 188.175 217.396C187.851 217.2 187.088 216.88 186.63 217.169C186.172 217.459 185.435 219.341 185.124 220.245C186.02 220.521 187.917 221.014 188.344 220.777Z" fill="#A39898"/>
<path d="M182.622 210.273C183.78 210.25 185.864 211.373 186.761 211.937C186.002 211.856 184.087 211.632 182.497 211.384C180.51 211.074 179.062 211.103 177.652 210.967C176.242 210.832 174.606 210.054 173.862 210.15C173.119 210.246 170.479 208.773 169.654 208.192C168.83 207.611 167.553 207.059 167.121 206.85C166.776 206.683 165.67 205.332 165.161 204.678C165.738 204.853 166.965 205.324 167.263 205.812C167.634 206.421 170.941 208.125 172.487 208.847C174.034 209.569 176.819 209.692 177.413 209.941C178.007 210.189 181.173 210.301 182.622 210.273Z" fill="#938D8D"/>
<path d="M103.058 213.058C100.357 215.104 96.3064 216.081 94.6187 216.314C91.3521 216.399 89.9615 215.636 87.6175 214.305C87.3823 217.176 87.2995 222.452 88.8497 220.583C90.7875 218.247 92.7493 220.256 96.7047 219.981C100.66 219.705 106.529 217.792 108.973 217.259C111.416 216.726 115.264 216.455 119.212 214.731C123.159 213.007 119.675 206.717 117.135 206.235C114.595 205.753 106.433 210.5 103.058 213.058Z" fill="#A39898"/>
<ellipse rx="0.378875" ry="0.378875" transform="matrix(-0.736286 -0.67667 -0.676129 0.736783 118.729 213.463)" fill="black"/>
<ellipse rx="0.378875" ry="0.378875" transform="matrix(-0.736286 -0.67667 -0.676129 0.736783 116.436 207.445)" fill="black"/>
<path d="M115.789 212.408C116.839 211.892 118.903 211.256 119.918 211.16L119.978 211.318C118.185 211.591 115.087 212.277 113.223 215.093C112.46 216.245 113.059 217.55 113.411 218.25C113.051 217.783 112.399 216.641 112.664 215.814C112.995 214.781 114.476 213.054 115.789 212.408Z" fill="#333232"/>
<path d="M114.809 209.948C115.962 209.749 118.005 209.051 118.883 208.533L118.839 208.369C117.228 209.202 114.317 210.467 111.156 209.283C109.863 208.799 109.582 207.39 109.456 206.617C109.439 207.207 109.581 208.514 110.281 209.028C111.155 209.669 113.367 210.196 114.809 209.948Z" fill="#333232"/>
<path d="M125.242 210.289C124.214 210.333 121.841 211.006 120.783 211.337L120.723 211.179C124.268 209.826 126.177 210.017 126.689 210.281C126.634 210.265 126.269 210.245 125.242 210.289Z" fill="#333232"/>
<path d="M123.361 205.792C122.655 206.54 120.591 207.892 119.647 208.475L119.727 208.624C123.072 206.832 124.18 205.264 124.316 204.704C124.292 204.755 124.068 205.045 123.361 205.792Z" fill="#333232"/>
<path d="M124.588 208.641C124.025 208.741 121.596 209.811 120.48 210.309L120.526 210.472C121.677 209.976 124.1 208.959 124.577 208.855C125.054 208.751 125.707 208.788 125.973 208.819C125.746 208.718 125.151 208.541 124.588 208.641Z" fill="#333232"/>
<path d="M124.588 208.641C124.025 208.741 121.596 209.811 120.48 210.309L120.526 210.472C121.677 209.976 124.1 208.959 124.577 208.855C125.054 208.751 125.707 208.788 125.973 208.819C125.746 208.718 125.151 208.541 124.588 208.641Z" fill="#333232"/>
<path d="M124.214 207.731C123.754 208.072 121.309 209.104 120.181 209.574L120.094 209.429C121.245 208.931 123.647 207.867 124.05 207.592C124.454 207.316 124.875 206.816 125.035 206.6C124.953 206.835 124.673 207.39 124.214 207.731Z" fill="#333232"/>
<path d="M124.214 207.731C123.754 208.072 121.309 209.104 120.181 209.574L120.094 209.429C121.245 208.931 123.647 207.867 124.05 207.592C124.454 207.316 124.875 206.816 125.035 206.6C124.953 206.835 124.673 207.39 124.214 207.731Z" fill="#333232"/>
<ellipse rx="2.349" ry="0.454629" transform="matrix(-0.361971 -0.932501 -0.931785 0.36221 119.894 210.013)" fill="black"/>
<path d="M120.782 212.571C119.741 211.285 119.258 209.936 119.147 209.422C119.498 210.122 120.348 211.699 120.936 212.404C121.67 213.284 123.549 214.599 124.539 215.201C125.332 215.682 125.675 216.69 125.747 217.134C125.611 216.872 125.226 216.223 124.776 215.727C124.213 215.107 122.083 214.179 120.782 212.571Z" fill="#333232"/>
<path d="M118.535 207.185C118.731 208.828 119.361 210.115 119.651 210.553C119.395 209.813 118.857 208.104 118.762 207.191C118.643 206.05 119.011 203.786 119.27 202.656C119.478 201.752 118.995 200.803 118.727 200.441C118.82 200.722 119.017 201.45 119.058 202.119C119.11 202.955 118.29 205.13 118.535 207.185Z" fill="#333232"/>
<path d="M112.116 204.195C112.592 204.304 112.837 206.436 112.899 207.488C112.643 207.767 112.001 208.288 111.48 208.139C110.959 207.989 109.725 206.39 109.174 205.608C109.956 205.092 111.64 204.087 112.116 204.195Z" fill="#A39898"/>
<path d="M112.116 204.195C112.592 204.304 112.837 206.436 112.899 207.488C112.643 207.767 112.001 208.288 111.48 208.139C110.959 207.989 109.725 206.39 109.174 205.608C109.956 205.092 111.64 204.087 112.116 204.195Z" fill="#A39898"/>
<path d="M118.824 217.987C119.043 217.549 117.552 216.007 116.779 215.29C116.401 215.311 115.591 215.477 115.376 215.975C115.16 216.473 115.613 218.442 115.866 219.364C116.761 219.087 118.606 218.424 118.824 217.987Z" fill="#A39898"/>
<path d="M118.824 217.987C119.043 217.549 117.552 216.007 116.779 215.29C116.401 215.311 115.591 215.477 115.376 215.975C115.16 216.473 115.613 218.442 115.866 219.364C116.761 219.087 118.606 218.424 118.824 217.987Z" fill="#A39898"/>
<path d="M108.18 212.543C109.124 211.87 111.478 211.622 112.537 211.581C111.865 211.943 110.157 212.839 108.704 213.531C106.889 214.396 105.708 215.236 104.468 215.92C103.227 216.604 101.437 216.884 100.877 217.383C100.317 217.881 97.3069 218.155 96.2985 218.14C95.29 218.125 93.9235 218.389 93.4495 218.46C93.0703 218.517 91.3959 218.025 90.606 217.772C91.1809 217.591 92.4608 217.288 92.981 217.523C93.6313 217.817 97.3224 217.358 99.0066 217.082C100.691 216.806 103.061 215.337 103.692 215.207C104.322 215.077 107 213.383 108.18 212.543Z" fill="#938D8D"/>
<path d="M49.3295 235.462C48.1764 239.212 56.8972 243.155 60.1404 243.756H93.6539C105.185 243.756 109.87 234.38 109.149 232.216C108.068 228.97 103.384 228.249 99.7801 232.216C96.072 236.298 89.3296 234.019 91.8521 228.249C94.735 224.282 92.5729 219.594 89.69 219.594C82.9194 219.594 86.0864 226.806 82.1224 228.249C78.1585 229.692 79.5999 226.085 79.5999 219.594C79.5999 213.103 74.5548 213.103 72.0323 214.545C66.7042 217.592 73.1134 222.479 68.4287 228.249C63.744 234.019 62.8982 219.731 57.6178 222.84C51.4916 226.446 62.3026 230.413 60.1404 234.019C57.9782 237.625 50.5492 231.495 49.3295 235.462Z" fill="#51895C"/>
<path d="M175.455 235.462C174.302 239.212 183.023 243.155 186.266 243.756H219.78C231.311 243.756 235.996 234.38 235.275 232.216C234.194 228.97 229.51 228.249 225.906 232.216C222.198 236.298 215.456 234.019 217.978 228.249C220.861 224.282 218.699 219.594 215.816 219.594C209.045 219.594 212.212 226.806 208.248 228.249C204.284 229.692 205.726 226.085 205.726 219.594C205.726 213.103 200.681 213.103 198.158 214.545C192.83 217.592 199.239 222.479 194.555 228.249C189.87 234.019 189.024 219.731 183.744 222.84C177.618 226.446 188.429 230.413 186.266 234.019C184.104 237.625 176.675 231.495 175.455 235.462Z" fill="#51895C"/>
<rect x="53.6538" y="241.232" width="50.4504" height="23.8013" fill="#4D4242"/>
<rect x="179.78" y="241.232" width="50.4504" height="23.8013" fill="#4D4242"/>
<rect x="24.2793" y="90.865" width="238" height="181.135" stroke="black" stroke-width="2"/>
<rect x="84.0991" y="90.7139" width="118.36" height="181.198" stroke="black" stroke-width="2"/>
<path d="M263.279 91.6666L143.279 1.60034L23.2793 91.6666" stroke="black" stroke-width="2"/>
<line x1="143.079" y1="1" x2="143.079" y2="89.8653" stroke="black" stroke-width="2"/>
<line x1="84.2793" y1="45.4326" x2="84.2793" y2="90.4657" stroke="black" stroke-width="2"/>
<line y1="-1" x2="44.4367" y2="-1" transform="matrix(-0.0135025 0.999909 -0.999909 -0.0135223 201.479 45.4326)" stroke="black" stroke-width="2"/>
<line x1="54.8796" y1="91.0662" x2="54.8796" y2="272.4" stroke="black" stroke-width="2"/>
<line x1="231.879" y1="91.6665" x2="231.879" y2="273" stroke="black" stroke-width="2"/>
<defs>
<linearGradient id="paint0_linear_64_4" x1="144.36" y1="13.2612" x2="144.36" y2="300.319" gradientUnits="userSpaceOnUse">
<stop stop-color="#F1EFEF"/>
<stop offset="1" stop-color="#F1EFEF" stop-opacity="0"/>
</linearGradient>
</defs>
</svg>
