<?xml version="1.0" encoding="utf-8"?>
<!-- Generator: Adobe Illustrator 21.0.2, SVG Export Plug-In . SVG Version: 6.00 Build 0)  -->
<svg version="1.1" id="Layer_1" xmlns="http://www.w3.org/2000/svg" xmlns:xlink="http://www.w3.org/1999/xlink" x="0px" y="0px"
	 viewBox="0 0 376 400" style="enable-background:new 0 0 376 400;" xml:space="preserve">
<path d="M159.3,105.1L220.2,70l64.3,37.1v70.3L250.6,197c-0.2,0.1-0.2,0.1-0.4,0.3c-0.3,0.2-0.5,0.5-0.7,0.7
	c-0.2,0.3-0.4,0.7-0.5,1.2c-0.1,0.4-0.1,0.8-0.1,1.3c0,0.3,0.1,0.7,0.3,1c0.1,0.3,0.3,0.6,0.5,0.9c0.2,0.3,0.5,0.5,0.8,0.7
	c0.3,0.2,0.6,0.3,0.9,0.4c0.7,0.2,1.4,0.2,2,0c0.2-0.1,0.3-0.1,0.5-0.2c0.1,0,0.2-0.1,0.2-0.1l33.9-19.6l60.9,35.1v74.3L284.5,330
	l-60.9-35.1v-76.3l0,0c0-0.2,0-0.5-0.1-0.7c0-0.1,0-0.2-0.1-0.3v0l0,0l0,0v0c0,0,0,0,0-0.1v0h0l0,0l0,0v0l0,0l0,0l0,0l0,0l0,0
	c0-0.1-0.1-0.2-0.1-0.3v0l0,0l0,0l0,0l0,0v0l0,0l0,0l0,0l0,0l0,0l0,0l0,0v0v0l0,0l0,0l0,0l0,0l0,0l0,0l0,0l0,0v0l0,0l0,0l0,0l0,0
	c0,0,0-0.1-0.1-0.1c0,0-0.1-0.1-0.1-0.1l0,0l0,0l0,0l0,0l0,0l0,0l0,0l0,0l0,0l0,0l0,0l0,0l0,0l0,0l0,0h0c-0.1-0.1-0.2-0.3-0.3-0.4
	l0,0v0l0,0l0,0h0v0l0,0l0,0l0,0l0,0c0,0,0,0,0,0l0,0l0,0l0,0l0,0l0,0l0,0l0,0l0,0l0,0l0,0l0,0l0,0l0,0l0,0l0,0h0c0,0,0,0-0.1-0.1
	c-0.2-0.2-0.3-0.2-0.5-0.3l-62.6-36.1V105.1z M152.4,105.1v74.3L121.9,197c-0.2,0.1-0.2,0.1-0.4,0.2c-0.3,0.3-0.6,0.6-0.9,0.9
	c-0.2,0.4-0.4,0.8-0.5,1.2c-0.1,0.3-0.1,0.7-0.1,1c0,0.3,0.1,0.7,0.3,1c0.1,0.3,0.3,0.6,0.6,0.9c0.3,0.4,0.7,0.7,1.2,0.9
	c0.4,0.2,0.8,0.3,1.2,0.3c0.5,0,1,0,1.4-0.2c0.1,0,0.3-0.1,0.4-0.2c0.1,0,0.1-0.1,0.2-0.1l30.4-17.6l60.9,35.1v74.3L155.8,330
	l-64.3-37.1v-74.3l-64.3-37.1v-74.3L91.5,70L152.4,105.1z M145.5,236.4h-7.9l14,39.3h7.3l14-39.3h-7.9l-9.8,27.4L145.5,236.4z
	 M296.8,235.5h-23.9v39.3h23.9v-7.5h-16.4v-8.7h16.4v-7.5h-16.4V243h16.4V235.5z M224.1,123.5h-7.5v39.3h7.5V123.5z M83.5,123.5
	h-8.1v39.3h8.1v-16.1h15.7v16.1h8.1v-39.3h-8.1v15.7H83.5V123.5z"/>
</svg>
