<svg width="281" height="280" viewBox="0 0 281 280" fill="none" xmlns="http://www.w3.org/2000/svg">
<rect x="138.793" y="105.285" width="86.4616" height="12.5203" fill="#555555"/>
<rect width="65.3359" height="12.5142" transform="matrix(-0.00205529 -0.999998 0.999998 -0.00205731 244.729 223.004)" fill="#555555"/>
<ellipse cx="251.99" cy="153.09" rx="28.4413" ry="8.53659" fill="#85969B"/>
<rect x="223.548" y="68.8618" width="56.8826" height="84.2276" fill="#85969B"/>
<ellipse cx="251.99" cy="68.862" rx="28.4413" ry="8.53659" fill="#2F6451"/>
<path d="M235.169 99.3472C235.169 89.4626 242.808 81.259 252.668 80.5562C266.115 79.5977 276.187 92.662 271.839 105.423L269.594 112.013C268.552 115.071 268.153 118.311 268.422 121.53L269.468 134.054C270.35 144.623 262.449 153.884 251.874 154.678C239.501 155.606 229.545 144.67 231.628 132.439L234.752 114.088C235.029 112.459 235.169 110.81 235.169 109.158V99.3472Z" fill="#C3D3D8"/>
<rect width="3.413" height="9.67469" rx="1.7065" transform="matrix(0.988784 -0.149355 0.149212 0.988805 261.091 92.7051)" fill="#2F6451"/>
<rect width="3.413" height="9.6747" rx="1.7065" transform="matrix(0.988784 -0.149355 0.149212 0.988805 248.008 129.128)" fill="#2F6451"/>
<rect width="3.413" height="9.67469" rx="1.7065" transform="matrix(0.988784 -0.149355 0.149212 0.988805 250.852 104.656)" fill="#2F6451"/>
<rect width="3.41399" height="9.67187" rx="1.70699" transform="matrix(0.620049 -0.784563 0.784266 0.620424 248.008 118.776)" fill="#2F6451"/>
<rect width="3.41356" height="9.67312" rx="1.70678" transform="matrix(0.802788 -0.596264 0.595886 0.803069 233.249 129.522)" fill="#2F6451"/>
<rect width="3.41323" height="9.674" rx="1.70662" transform="matrix(0.913215 0.407478 -0.407144 0.913364 263.323 130.325)" fill="#2F6451"/>
<rect width="3.41344" height="9.67342" rx="1.70672" transform="matrix(0.843168 0.537651 -0.537274 0.843408 244.104 110.407)" fill="#2F6451"/>
<rect width="3.41305" height="9.67453" rx="1.70653" transform="matrix(0.972272 -0.233852 0.233636 0.972324 248.008 143.644)" fill="#2F6451"/>
<rect width="3.41345" height="9.67343" rx="1.70672" transform="matrix(0.843168 0.537649 -0.537276 0.843407 255.481 87.0733)" fill="#2F6451"/>
<rect width="3.41299" height="9.6747" rx="1.70649" transform="matrix(0.990073 -0.140555 0.14042 0.990092 242.32 89.2605)" fill="#2F6451"/>
<rect width="2.45709" height="6.96317" rx="1.22854" transform="matrix(0.842288 -0.539028 0.538654 0.842527 258.247 114.008)" fill="#2F6451"/>
<rect width="2.45684" height="6.9638" rx="1.22842" transform="matrix(0.948327 0.317294 -0.317013 0.948421 245.291 122.209)" fill="#2F6451"/>
<rect width="2.45685" height="6.96381" rx="1.22843" transform="matrix(0.948327 0.317294 -0.317013 0.948421 242.252 141.138)" fill="#2F6451"/>
<rect width="2.45714" height="6.96298" rx="1.22857" transform="matrix(0.810845 0.58526 -0.584881 0.811119 261.182 103.577)" fill="#2F6451"/>
<rect width="2.45699" height="6.96344" rx="1.22849" transform="matrix(0.88901 -0.457889 0.457534 0.889192 238.338 100.719)" fill="#2F6451"/>
<rect width="2.45672" height="6.96416" rx="1.22836" transform="matrix(0.99955 0.0300048 -0.0299751 0.999551 255.042 137.724)" fill="#2F6451"/>
<rect width="2.45774" height="6.96129" rx="1.22887" transform="matrix(0.400688 0.916214 -0.91607 0.401018 252.11 99.5938)" fill="#2F6451"/>
<rect width="2.45793" height="6.96073" rx="1.22897" transform="matrix(0.0445888 0.999005 -0.999003 0.0446328 264.063 125.203)" fill="#2F6451"/>
<rect width="65.3359" height="12.5142" transform="matrix(-0.00205529 -0.999998 0.999998 -0.00205731 40.5208 241.784)" fill="#555555"/>
<rect width="19.3663" height="5.11943" transform="matrix(-0.00205529 -0.999998 0.999998 -0.00205731 44.4082 203.767)" fill="#4194AE"/>
<rect x="175.658" y="109.021" width="45.5061" height="5.12195" fill="#4194AE"/>
<rect x="70.5342" y="237.886" width="134.243" height="12.5203" fill="#555555"/>
<rect x="74.5161" y="241.87" width="127.417" height="5.12195" fill="#4194AE"/>
<rect width="36.8718" height="5.11943" transform="matrix(-0.00205529 -0.999998 0.999998 -0.00205731 248.666 200.912)" fill="#4194AE"/>
<path d="M99.5442 34.1463L18.2021 79.6748V173.008L99.5442 127.48V34.1463Z" fill="#CBCBCB"/>
<path d="M99.5442 34.1463L172.923 56.9106V150.244L99.5442 127.48V34.1463Z" fill="#B9B9B9"/>
<path d="M99.5443 57.4797L18.771 102.439L91.8652 125.488L172.354 79.6749L99.5443 57.4797Z" fill="#4194AE"/>
<path d="M18.771 102.439L91.5807 124.919V195.177L18.771 172.412V102.439Z" fill="#398199"/>
<path d="M91.5808 195.177L172.07 149.959V79.6749L91.5808 125.203V195.177Z" fill="#398199"/>
<path d="M172.923 56.9106L91.5807 102.439V195.772L172.923 150.244V56.9106Z" fill="#D9D9D9" fill-opacity="0.6"/>
<path d="M18.2021 79.6748L91.5807 102.439V195.772L18.2021 173.008V79.6748Z" fill="#D9D9D9" fill-opacity="0.6"/>
<ellipse cx="47.7811" cy="273.765" rx="22.753" ry="6.23459" fill="#165662"/>
<rect x="25.0281" y="212.251" width="45.5061" height="61.5146" fill="#165662"/>
<ellipse cx="47.7811" cy="212.251" rx="22.753" ry="6.23459" fill="#09353D"/>
<ellipse cx="240.898" cy="255.004" rx="36.1205" ry="4.50808" fill="#85969B"/>
<rect x="204.777" y="210.524" width="72.2409" height="44.4798" fill="#85969B"/>
<ellipse cx="240.898" cy="210.524" rx="36.1205" ry="4.50808" fill="#99B6BF"/>
<path d="M277.018 210.524C277.018 213.014 260.846 215.032 240.898 215.032C220.949 215.032 204.777 213.014 204.777 210.524C204.777 208.035 222.371 210.524 242.32 210.524C262.268 210.524 277.018 208.035 277.018 210.524Z" fill="#2F2F2F"/>
<path d="M230.375 209.102C230.375 213.724 226.249 213.984 220.638 213.984C215.027 213.984 212.172 213.724 212.172 209.102C212.172 204.48 216.721 202.826 222.332 202.826C228.258 201.78 230.375 204.48 230.375 209.102Z" fill="#2F2F2F"/>
<path d="M255.971 206.826C255.971 211.447 251.846 211.707 246.235 211.707C240.624 211.707 237.769 211.447 237.769 206.826C237.769 202.204 242.318 200.549 247.929 200.549C253.855 199.503 255.971 202.204 255.971 206.826Z" fill="#2F2F2F"/>
<path d="M270.192 207.483C271.614 213.174 266.495 211.467 261.025 213.174C255.414 213.174 252.843 212.914 252.843 208.293C252.843 203.671 254.342 202.361 259.953 202.361C265.88 201.315 269.339 204.069 270.192 207.483Z" fill="#2F2F2F"/>
<path d="M229.377 201.42C233.064 197.817 233.917 202.079 237.485 204.997C239.828 208.801 240.706 210.664 237.23 212.807C233.753 214.95 232.142 214.541 229.8 210.736C226.538 207.203 227.165 203.581 229.377 201.42Z" fill="#2F2F2F"/>
<path d="M47.0645 28.6588C53.5499 28.9774 61.017 26.1445 63.9399 24.6883C69.2027 21.292 70.5791 18.5805 72.8515 13.9405C76.3257 18.2298 82.1559 26.4882 77.6835 25.2072C72.093 23.606 71.1578 28.9057 64.5992 32.7457C58.0406 36.5856 46.6839 39.9037 42.2404 41.7015C37.7969 43.4992 31.4126 47.2307 23.3022 48.7703C15.1919 50.3099 13.9123 36.5903 17.4123 33.0814C20.9123 29.5725 38.9579 28.2607 47.0645 28.6588Z" fill="#A39898"/>
<ellipse rx="0.726183" ry="0.726005" transform="matrix(0.226658 -0.973974 0.973898 0.226988 22.6973 46.2469)" fill="black"/>
<ellipse rx="0.726183" ry="0.726005" transform="matrix(0.226658 -0.973974 0.973898 0.226988 19.827 34.2432)" fill="black"/>
<path d="M26.2111 41.3985C23.9906 41.716 20.0381 42.9421 18.3278 43.8855L18.4034 44.2013C21.5366 42.6949 27.1815 40.4318 33.1728 42.8719C35.6238 43.8701 36.0857 46.5827 36.286 48.0708C36.3498 46.9425 36.1493 44.4304 34.8367 43.4088C33.196 42.1317 28.9868 41.0016 26.2111 41.3985Z" fill="#333232"/>
<path d="M25.1057 36.4451C23.0654 37.3776 19.0767 38.4811 17.1276 38.611L17.0206 38.3043C20.4714 37.8795 26.4446 36.7346 30.1688 31.4435C31.6923 29.279 30.6157 26.7461 29.9804 25.3853C30.6436 26.3006 31.8319 28.5234 31.2791 30.0926C30.5881 32.054 27.6561 35.2795 25.1057 36.4451Z" fill="#333232"/>
<path d="M8.96031 48.2656C10.6339 47.2241 15.1174 45.724 17.15 45.1041L17.0744 44.7882C10.0019 46.4803 7.18535 48.8461 6.66113 49.8175C6.73021 49.7342 7.28676 49.3072 8.96031 48.2656Z" fill="#333232"/>
<path d="M7.07997 39.1168C9.006 39.5363 13.7328 39.4446 15.8554 39.3463L15.8903 39.6692C8.66048 40.4492 5.21322 39.1658 4.39331 38.4266C4.48635 38.4819 5.15394 38.6974 7.07997 39.1168Z" fill="#333232"/>
<path d="M8.21388 44.9509C9.2128 44.5006 14.2137 43.5689 16.5174 43.1495L16.6222 43.4569C14.2641 43.9177 9.33072 44.927 8.46253 45.2779C7.59433 45.6287 6.60167 46.3926 6.21387 46.7307C6.46432 46.3251 7.21496 45.4012 8.21388 44.9509Z" fill="#333232"/>
<path d="M8.21388 44.9509C9.2128 44.5006 14.2137 43.5689 16.5174 43.1495L16.6222 43.4569C14.2641 43.9177 9.33072 44.927 8.46253 45.2779C7.59433 45.6287 6.60167 46.3926 6.21387 46.7307C6.46432 46.3251 7.21496 45.4012 8.21388 44.9509Z" fill="#333232"/>
<path d="M7.82441 43.106C8.9193 43.149 13.9047 42.138 16.1975 41.6631L16.1794 41.3388C13.8205 41.7956 8.86872 42.7094 7.93231 42.7096C6.9959 42.7097 5.78925 42.3736 5.30298 42.2055C5.68725 42.4877 6.72951 43.0629 7.82441 43.106Z" fill="#333232"/>
<path d="M7.82441 43.106C8.9193 43.149 13.9047 42.138 16.1975 41.6631L16.1794 41.3388C13.8205 41.7956 8.86872 42.7094 7.93231 42.7096C6.9959 42.7097 5.78925 42.3736 5.30298 42.2055C5.68725 42.4877 6.72951 43.0629 7.82441 43.106Z" fill="#333232"/>
<ellipse rx="4.50252" ry="0.870978" transform="matrix(-0.226575 -0.974082 0.973883 -0.22667 17.1271 42.0462)" fill="black"/>
<path d="M18.4847 47.0551C18.7433 43.8939 18.0496 41.2366 17.6704 40.3031C17.8707 41.7915 18.2292 45.2058 18.0604 46.9562C17.8494 49.1441 16.2958 53.2563 15.3776 55.2794C14.6431 56.8979 15.1893 58.8646 15.5543 59.6456C15.4864 59.0829 15.3949 57.6398 15.5715 56.3685C15.7922 54.7794 18.1614 51.0065 18.4847 47.0551Z" fill="#333232"/>
<path d="M16.2233 36.1015C17.689 38.9139 18.0819 41.6318 18.0951 42.6392C17.7017 41.1899 16.706 37.9047 15.8708 36.3574C14.8268 34.4233 11.7989 31.2373 10.1675 29.7296C8.86232 28.5235 8.60182 26.4992 8.63471 25.6378C8.79069 26.1826 9.26675 27.548 9.92309 28.6508C10.7435 30.0294 14.3911 32.586 16.2233 36.1015Z" fill="#333232"/>
<path d="M23.1544 24.4295C22.5175 25.1162 24.4339 28.7542 25.4717 30.4874C26.1787 30.6522 27.7587 30.7819 28.4219 29.982C29.0851 29.1821 29.3087 25.3171 29.3376 23.4845C27.5419 23.5134 23.7913 23.7428 23.1544 24.4295Z" fill="#A39898"/>
<path d="M23.1544 24.4295C22.5175 25.1162 24.4339 28.7542 25.4717 30.4874C26.1787 30.6522 27.7587 30.7819 28.4219 29.982C29.0851 29.1821 29.3087 25.3171 29.3376 23.4845C27.5419 23.5134 23.7913 23.7428 23.1544 24.4295Z" fill="#A39898"/>
<path d="M27.432 53.508C26.6136 53.0525 27.3071 48.9995 27.7562 47.0299C28.3772 46.654 29.8389 46.0409 30.7174 46.5958C31.5959 47.1507 33.0071 50.7561 33.6029 52.4895C31.8869 53.0188 28.2503 53.9635 27.432 53.508Z" fill="#A39898"/>
<path d="M27.432 53.508C26.6136 53.0525 27.3071 48.9995 27.7562 47.0299C28.3772 46.654 29.8389 46.0409 30.7174 46.5958C31.5959 47.1507 33.0071 50.7561 33.6029 52.4895C31.8869 53.0188 28.2503 53.9635 27.432 53.508Z" fill="#A39898"/>
<path d="M38.3994 33.3812C36.1784 33.3377 32.1843 35.4891 30.4648 36.5702C31.9198 36.4153 35.5912 35.9868 38.6376 35.5113C42.4455 34.9169 45.2217 34.9712 47.9241 34.712C50.6266 34.4527 53.7626 32.9609 55.1876 33.1448C56.6127 33.3287 61.6728 30.5071 63.253 29.3935C64.8332 28.28 67.2815 27.2205 68.1085 26.8206C68.7701 26.5006 70.8892 23.9122 71.8661 22.658C70.7606 22.9931 68.4073 23.8968 67.8376 24.831C67.1255 25.9987 60.7879 29.2636 57.8238 30.6473C54.8597 32.0311 49.5203 32.2685 48.3821 32.7441C47.2439 33.2198 41.1756 33.4355 38.3994 33.3812Z" fill="#938D8D"/>
<path d="M80.778 42.0426C85.8017 50.1752 85.3133 59.5881 85.3133 59.5881C85.3133 59.5881 83.5212 51.5853 78.4976 43.4526C73.474 35.32 67.1211 30.1372 67.1211 30.1372C67.1211 30.1372 75.7544 33.91 80.778 42.0426Z" fill="#9CBDC8"/>
<path d="M76.7963 47.7338C81.82 55.8664 81.3316 65.2793 81.3316 65.2793C81.3316 65.2793 79.5395 57.2765 74.5159 49.1438C69.4923 41.0112 63.1394 35.8284 63.1394 35.8284C63.1394 35.8284 71.7727 39.6011 76.7963 47.7338Z" fill="#9CBDC8"/>
</svg>
