<svg width="428" height="3970" viewBox="0 0 428 3970" fill="none" xmlns="http://www.w3.org/2000/svg">
<g clip-path="url(#clip0_54_706)">
<rect width="428" height="3970" fill="white"/>
<rect y="-283" width="428" height="474" fill="#2DAB87"/>
<g filter="url(#filter0_d_54_706)">
<path d="M428 35.5735C149.372 -67.962 247.436 332.57 0 35.5735V371C46.7732 312.85 253.481 298.667 428 371V35.5735Z" fill="#2DAB87"/>
</g>
<path d="M428 66.5735C149.372 -36.962 247.436 363.57 0 66.5735V402C46.7732 343.85 253.481 329.667 428 402V66.5735Z" fill="#0C947F"/>
<path d="M428 -280.427C149.372 -383.962 247.436 16.5699 0 -280.427V1225C46.7732 1166.85 253.481 1152.67 428 1225V-280.427Z" fill="#058C7C"/>
<g filter="url(#filter1_d_54_706)">
<path d="M428 1323.07C149.372 1219.54 247.436 1540.07 0 1243.07V931.075C46.7732 872.925 253.481 858.742 428 931.075V1323.07Z" fill="#145D68"/>
</g>
<path d="M428 2687.77C149.372 2545.8 247.436 2985.32 0 2578.07V980.366C46.7732 900.631 253.481 881.183 428 980.366V2687.77Z" fill="#03545D"/>
<g filter="url(#filter2_d_54_706)">
<path d="M428 1681.55C125 1567.32 234 1782.91 0 1764.68V2178.68C46.7732 2092.49 292 2319.41 428 2178.68V1681.55Z" fill="#05444C"/>
</g>
<path d="M428 1806.7C125 1685.15 234 1914.57 0 1895.16V3089C46.7732 2997.29 292 3238.76 428 3089V1806.7Z" fill="#09353D"/>
<ellipse rx="12.5" ry="13" transform="matrix(-1 0 0 1 396.5 1237)" fill="#145D68"/>
<ellipse rx="5" ry="7" transform="matrix(-1 0 0 1 379 1285)" fill="#145D68"/>
<ellipse rx="9.5" ry="10" transform="matrix(-1 0 0 1 403.5 1275)" fill="#145D68"/>
<ellipse cx="41" cy="1077" rx="16" ry="17" fill="#145D68"/>
<ellipse cx="50" cy="1622" rx="16" ry="17" fill="#145D68"/>
<ellipse cx="52.5" cy="1153" rx="6.5" ry="9" fill="#145D68"/>
<ellipse cx="95.5" cy="1705" rx="6.5" ry="9" fill="#145D68"/>
<ellipse cx="33.5" cy="1127" rx="12.5" ry="13" fill="#145D68"/>
<ellipse cx="61.5" cy="1677" rx="12.5" ry="13" fill="#145D68"/>
<path d="M428 3945.5C149.372 4284.26 151.5 3750.5 0 3945.5V2848C46.7732 3038.26 235 2881 428 2848V3945.5Z" fill="#13222A"/>
<path d="M428 3972.5C149.372 4311.26 151.5 3777.5 0 3972.5V2875C46.7732 3065.26 235 2908 428 2875V3972.5Z" fill="#0D1B23"/>
<path d="M428 4032.5C149.372 4371.26 151.5 3837.5 0 4032.5V2935C46.7732 3125.26 235 2968 428 2935V4032.5Z" fill="#0D171D"/>
<ellipse cx="30.5" cy="507" rx="12.5" ry="13" fill="#0C947F"/>
<ellipse cx="48" cy="555" rx="5" ry="7" fill="#0C947F"/>
<ellipse cx="23.5" cy="545" rx="9.5" ry="10" fill="#0C947F"/>
<ellipse rx="16" ry="17" transform="matrix(-1 0 0 1 391 393)" fill="#0C947F"/>
<ellipse rx="16" ry="17" transform="matrix(-1 0 0 1 393 790)" fill="#0C947F"/>
<ellipse rx="6.5" ry="9" transform="matrix(-1 0 0 1 379.5 469)" fill="#0C947F"/>
<ellipse rx="6.5" ry="9" transform="matrix(-1 0 0 1 347.5 873)" fill="#0C947F"/>
<ellipse rx="12.5" ry="13" transform="matrix(-1 0 0 1 398.5 443)" fill="#0C947F"/>
<ellipse rx="12.5" ry="13" transform="matrix(-1 0 0 1 381.5 845)" fill="#0C947F"/>
</g>
<defs>
<filter id="filter0_d_54_706" x="-6" y="10" width="440" height="365" filterUnits="userSpaceOnUse" color-interpolation-filters="sRGB">
<feFlood flood-opacity="0" result="BackgroundImageFix"/>
<feColorMatrix in="SourceAlpha" type="matrix" values="0 0 0 0 0 0 0 0 0 0 0 0 0 0 0 0 0 0 127 0" result="hardAlpha"/>
<feOffset dy="-2"/>
<feGaussianBlur stdDeviation="3"/>
<feComposite in2="hardAlpha" operator="out"/>
<feColorMatrix type="matrix" values="0 0 0 0 0.0105903 0 0 0 0 0.254167 0 0 0 0 0.225298 0 0 0 0.2 0"/>
<feBlend mode="normal" in2="BackgroundImageFix" result="effect1_dropShadow_54_706"/>
<feBlend mode="normal" in="SourceGraphic" in2="effect1_dropShadow_54_706" result="shape"/>
</filter>
<filter id="filter1_d_54_706" x="-6" y="872" width="440" height="502.809" filterUnits="userSpaceOnUse" color-interpolation-filters="sRGB">
<feFlood flood-opacity="0" result="BackgroundImageFix"/>
<feColorMatrix in="SourceAlpha" type="matrix" values="0 0 0 0 0 0 0 0 0 0 0 0 0 0 0 0 0 0 127 0" result="hardAlpha"/>
<feOffset dy="-4"/>
<feGaussianBlur stdDeviation="3"/>
<feComposite in2="hardAlpha" operator="out"/>
<feColorMatrix type="matrix" values="0 0 0 0 0.0171875 0 0 0 0 0.249219 0 0 0 0 0.275 0 0 0 0.2 0"/>
<feBlend mode="normal" in2="BackgroundImageFix" result="effect1_dropShadow_54_706"/>
<feBlend mode="normal" in="SourceGraphic" in2="effect1_dropShadow_54_706" result="shape"/>
</filter>
<filter id="filter2_d_54_706" x="-6" y="1638" width="440" height="589.932" filterUnits="userSpaceOnUse" color-interpolation-filters="sRGB">
<feFlood flood-opacity="0" result="BackgroundImageFix"/>
<feColorMatrix in="SourceAlpha" type="matrix" values="0 0 0 0 0 0 0 0 0 0 0 0 0 0 0 0 0 0 127 0" result="hardAlpha"/>
<feOffset dy="-4"/>
<feGaussianBlur stdDeviation="3"/>
<feComposite in2="hardAlpha" operator="out"/>
<feColorMatrix type="matrix" values="0 0 0 0 0.03 0 0 0 0 0.173846 0 0 0 0 0.2 0 0 0 0.2 0"/>
<feBlend mode="normal" in2="BackgroundImageFix" result="effect1_dropShadow_54_706"/>
<feBlend mode="normal" in="SourceGraphic" in2="effect1_dropShadow_54_706" result="shape"/>
</filter>
<clipPath id="clip0_54_706">
<rect width="428" height="3970" fill="white"/>
</clipPath>
</defs>
</svg>
